# xmcd CD database file
#
# Track frame offsets:
#	150
#	17712
#	31425
#	57501
#	66609
#	87821
#	104171
#	123689
#	138403
#	156743
#	180527
#	196746
#	204627
#	212034
#	233483
#	251533
#	265535
#	285364
#
# Disc length: 4119 seconds
#
# Revision: 1
# Processed by: cddbd v1.5.2PL0 Copyright (c) Steve Scherf et al.
# Submitted via: CDex 1.51
#
DISCID=0e101512
DTITLE=Dr. Gary Smalley - the DNA of Relationships [CD03)
DYEAR=2004
DGENRE=Book
TTITLE0=01-DNA of Relationships [CD03) #01
TTITLE1=02-DNA of Relationships [CD03) #02
TTITLE2=03-DNA of Relationships [CD03) #03
TTITLE3=04-DNA of Relationships [CD03) #04
TTITLE4=05-DNA of Relationships [CD03) #05
TTITLE5=06-DNA of Relationships [CD03) #06
TTITLE6=07-DNA of Relationships [CD03) #07
TTITLE7=08-DNA of Relationships [CD03) #08
TTITLE8=09-DNA of Relationships [CD03) #09
TTITLE9=10-DNA of Relationships [CD03) #10
TTITLE10=11-DNA of Relationships [CD03) #11
TTITLE11=12-DNA of Relationships [CD03) #12
TTITLE12=13-DNA of Relationships [CD03) #13
TTITLE13=14-DNA of Relationships [CD03) #14
TTITLE14=15-DNA of Relationships [CD03) #15
TTITLE15=16-DNA of Relationships [CD03) #16
TTITLE16=17-DNA of Relationships [CD03) #17
TTITLE17=18-DNA of Relationships [CD03) #18
EXTD=YEAR: 2004
EXTT0=
EXTT1=
EXTT2=
EXTT3=
EXTT4=
EXTT5=
EXTT6=
EXTT7=
EXTT8=
EXTT9=
EXTT10=
EXTT11=
EXTT12=
EXTT13=
EXTT14=
EXTT15=
EXTT16=
EXTT17=
PLAYORDER=
